<?xml version="1.0" encoding="UTF-8"?> <svg xmlns="http://www.w3.org/2000/svg" width="210" height="32" viewBox="0 0 210 32" fill="none"><path d="M64.8749 19.2716C65.6972 20.9008 67.0358 21.7039 68.8975 21.7039C70.8972 21.7039 71.611 20.6479 71.611 19.6148C71.611 18.9037 71.3577 18.4208 70.6917 17.9856C70.0256 17.5504 69.5405 17.3287 68.3465 16.8836C66.8664 16.3334 66.0244 15.9195 65.1051 15.1854C64.1858 14.4266 63.75 13.3952 63.75 12.0402C63.7344 11.4462 63.8545 10.8565 64.1013 10.3158C64.3481 9.77508 64.715 9.29765 65.1742 8.91976C66.1395 8.11665 67.3121 7.72576 68.7133 7.72576C70.8972 7.72576 72.5533 8.59786 73.6552 10.3207L71.611 11.72C70.9893 10.7789 70.047 10.2977 68.7593 10.2977C67.4716 10.2977 66.577 11.0088 66.577 11.9959C66.577 12.6611 66.8516 12.9813 67.2348 13.3738C67.4881 13.5561 68.1311 13.8321 68.4304 13.993L69.2527 14.3215L70.2032 14.6861C71.7212 15.3069 72.8 15.9721 73.4677 16.6832C74.1354 17.3944 74.4791 18.3601 74.4791 19.5524C74.4791 22.3773 72.5253 24.2824 68.8695 24.2824C65.9093 24.2824 63.7221 22.9045 62.709 20.6314L64.8749 19.2716ZM82.414 19.2716C83.2363 20.9008 84.575 21.7039 86.4366 21.7039C88.4364 21.7039 89.1501 20.6479 89.1501 19.6148C89.1501 18.9037 88.8969 18.4208 88.2308 17.9856C87.5648 17.5504 87.0796 17.3287 85.8857 16.8836C84.4056 16.3334 83.5636 15.9195 82.6443 15.1854C81.725 14.4266 81.2875 13.3952 81.2875 12.0402C81.2722 11.4461 81.3927 10.8563 81.6397 10.3156C81.8868 9.77494 82.2539 9.29757 82.7133 8.91976C83.6787 8.11665 84.8513 7.72576 86.2524 7.72576C88.4364 7.72576 90.0924 8.59786 91.1861 10.3207L89.1419 11.72C88.5203 10.7789 87.5779 10.2977 86.2902 10.2977C85.0026 10.2977 84.1161 11.0072 84.1161 11.9943C84.1161 12.6594 84.3908 12.9797 84.774 13.3722C85.0272 13.5545 85.6703 13.8304 85.9696 13.9914L86.7918 14.3198L87.7342 14.6861C89.2504 15.3069 90.3309 15.9721 90.9986 16.6832C91.6663 17.3944 92.01 18.3535 92.01 19.5458C92.01 22.3707 90.0563 24.2758 86.4021 24.2758C83.4419 24.2758 81.253 22.8979 80.2416 20.6249L82.414 19.2716ZM193.092 10.5933L191.139 12.2702C189.987 10.9563 188.517 10.3191 186.748 10.3191C185.139 10.3191 183.788 10.8692 182.702 11.9483C181.617 13.0273 181.094 14.3806 181.094 16.0115C181.094 17.6423 181.622 18.9957 182.702 20.0747C183.783 21.1537 185.139 21.6809 186.748 21.6809C188.557 21.6809 190.058 21.024 191.188 19.6838L193.12 21.3607C192.334 22.2822 191.354 23.0206 190.252 23.5242C189.149 24.0278 187.949 24.2844 186.736 24.2758C184.368 24.2758 182.345 23.4957 180.691 21.9338C179.036 20.372 178.224 18.3765 178.224 16.0115C178.224 13.6465 179.046 11.6724 180.691 10.0891C182.335 8.50589 184.368 7.72412 186.736 7.72412C189.293 7.72412 191.408 8.68819 193.087 10.5933H193.092ZM108.775 8.00004V17.5717C108.775 20.3276 107.395 21.6579 105.166 21.6579C102.89 21.6579 101.534 20.3276 101.534 17.5717V8.00004H97.2578L98.6606 10.9776V17.8756C98.6606 19.9187 99.2592 21.5019 100.47 22.6039C101.68 23.7059 103.259 24.2529 105.166 24.2529C107.074 24.2529 108.62 23.701 109.832 22.599C111.044 21.497 111.641 19.9137 111.641 17.8706V8.00004H108.775ZM127.6 17.6177C129.348 16.8836 130.519 15.1542 130.519 13.0733C130.536 12.3995 130.41 11.7297 130.148 11.1082C129.887 10.4868 129.496 9.92784 129.003 9.46831C128.52 8.98855 127.946 8.61114 127.314 8.35881C126.682 8.10648 126.006 7.98444 125.325 8.00004H117.693L119.096 10.9776V23.9999H121.969V10.5933H125.258C126.636 10.5933 127.672 11.6494 127.672 13.1193C127.672 14.6565 126.592 15.7356 125.028 15.7356H123.273L128.244 23.9999H131.479L127.6 17.6177ZM202.511 21.405V16.9985H209.383V14.4053H202.511V10.5933H209.844V8.00004H198.235L199.638 10.9776V23.9999H209.998V21.405H202.511ZM171.58 8.00004H168.705V19.1681L160.861 8.00004H156.384L157.787 10.9776V23.9999H160.662V12.8319L168.506 23.9999H171.58V8.00004ZM41.7459 23.9999H44.7818L46.1846 20.9008H53.1443L54.5471 23.9999H57.5829L50.0328 8.00004H47.3061L48.2797 10.1532L41.7459 23.9999ZM52.0227 18.4159H47.3061L49.6644 13.208L52.0227 18.4159ZM136.235 23.9999H139.271L140.674 20.9008H147.634L149.036 23.9999H152.072L144.522 8.00004H141.796L142.769 10.1532L136.235 23.9999ZM146.512 18.4159H141.796L144.154 13.208L146.512 18.4159Z" fill="#0F1E2A"></path><path d="M13.7896 0L1.89946 20.5673L2.81054 22.144L15.6117 0H13.7896ZM9.99065 0L0 17.2826L0.911082 18.8576L11.8128 0H9.99065ZM17.5885 0L3.79892 23.8537L4.71 25.4287L19.4106 0H17.5885ZM27.0085 0H25.1863L7.58961 30.4248L8.50069 31.9998L27.0085 0ZM21.3874 0L5.69837 27.1384L6.60945 28.7151L23.2096 0H21.3874Z" fill="#0082CB"></path><path d="M19.4863 16.427L28.4885 31.9999L29.3996 30.4249L20.399 14.8503L19.4863 16.427ZM21.3857 13.1423L30.388 28.7135L31.2991 27.1385L22.2985 11.5656L21.3857 13.1423ZM27.9968 1.71143L27.0857 3.28645L36.0962 18.8577L37.0073 17.2827L27.9968 1.71143ZM23.2868 9.85754L32.2891 25.4304L33.2002 23.8554L24.1979 8.28088L23.2868 9.85754ZM25.1863 6.57282L34.1886 22.1457L35.0996 20.569L26.0974 4.99615L25.1863 6.57282Z" fill="#582C83"></path><path d="M14.2852 32H16.1057L18.5002 27.8596L20.8946 32H22.7152L18.5002 24.7046L14.2852 32ZM18.5002 18.1351L10.4863 31.9967H12.3068L18.5002 21.2885L24.6919 32H26.5141L18.5002 18.1351Z" fill="#D9362C"></path></svg> 